<?xml version="1.0" encoding="utf-8"?>
<!-- Generator: Adobe Illustrator 17.0.0, SVG Export Plug-In . SVG Version: 6.00 Build 0)  -->
<!DOCTYPE svg PUBLIC "-//W3C//DTD SVG 1.1//EN" "http://www.w3.org/Graphics/SVG/1.1/DTD/svg11.dtd">
<svg version="1.1" id="Layer_1" xmlns="http://www.w3.org/2000/svg" xmlns:xlink="http://www.w3.org/1999/xlink" x="0px" y="0px"
	 width="120px" height="44px" viewBox="0 0 120 44" enable-background="new 0 0 120 44" xml:space="preserve">
<g>
	<g>
		<path fill="#68AD45" d="M33.977,29.033l1.02-0.216c0.048,0.055,0.098,0.111,0.145,0.167l-0.168,0.036
			c-0.153,0.306-0.784,0.282-1.372,0.39l-0.074-0.083l0.084-0.018C33.657,29.222,33.935,29.122,33.977,29.033 M27.891,30.027
			c0.266-0.012,0.948-0.151,1.251-0.067l-0.085,0.018c-0.05,0.105-0.207,0.14-0.437,0.191c-0.213-0.054-0.614,0.035-0.827-0.023
			C27.896,30.061,27.861,30.112,27.891,30.027 M21.327,30.826c0.352-0.09,0.914-0.268,1.264-0.17
			C22.239,30.746,21.677,30.923,21.327,30.826 M10.193,29.331c0.114,0.209,0.078,0.205,0.126,0.369l0.17-0.036
			c-0.013-0.158,0.03-0.205,0.119-0.322l-0.074-0.084L10.193,29.331z M10.643,29.038l0.074,0.083c0.02,0.096-0.17,0.056-0.012,0.1
			c0.175,0.05,0.276,0.03,0.5-0.006c-0.046-0.09-0.091-0.178-0.137-0.268L10.643,29.038z M11.485,25.995
			c0.211,0.042,0.174,0.05,0.256-0.054L11.485,25.995z M12.066,25.278c-0.023,0.165-0.113,0.25-0.291,0.358
			c0.049,0.055,0.099,0.11,0.148,0.166l0.085-0.018c0.02-0.191,0.16-0.315,0.143-0.524L12.066,25.278z M13.551,24.667
			c-0.077,0.85-1.046,1.34-1.72,1.945c-0.455,0.409-0.346,1.091-0.842,1.563c0.151,0.165,0.108,0.004,0.148,0.166
			c-0.023,0.13-0.05,0.146-0.194,0.238l0.075,0.084l0.256-0.054c-0.009-0.341,0.349-0.133,0.546-0.413
			c0.072-0.103-0.174-0.452-0.102-0.571c0.131-0.219,0.511-0.125,0.705-0.347c0.32-0.368-0.183-0.899,0.614-1.02
			c-0.201-0.225-0.232-0.11-0.051-0.286c0.097-0.232,0.478-0.087,0.609-0.228c-0.046-0.09-0.091-0.178-0.136-0.268
			c0.239-0.35,0.646-0.548,0.849-0.872l-0.074-0.083L13.551,24.667z M12.585,24.377c-0.101,0.153-0.202,0.307-0.302,0.46
			l0.074,0.083l0.256-0.054c0.023-0.182,0.131-0.339,0.302-0.46l-0.074-0.083L12.585,24.377z M11.152,23.791l0.171-0.036
			l0.074,0.084C11.201,23.818,11.299,23.84,11.152,23.791 M15.007,22.876c-0.084,0.273-0.387,0.563-0.668,0.735l0.073,0.083
			l0.512-0.109c0.017-0.267,0.163-0.509,0.412-0.68l-0.074-0.083L15.007,22.876z M15.469,22.481
			c0.226,0.211,0.033,0.123,0.318,0.131c0.028-0.085-0.002-0.035,0.098-0.12l-0.074-0.083L15.469,22.481z M11.661,22.993
			l0.171-0.036l0.074,0.083C11.709,23.019,11.808,23.041,11.661,22.993 M11.855,22.753l0.171-0.036l0.074,0.084
			C11.903,22.78,12.002,22.802,11.855,22.753 M11.952,22.634l0.171-0.036l0.073,0.083C12,22.66,12.099,22.683,11.952,22.634
			 M12.06,22.413c0.206-0.006,0.183-0.014,0.331,0.029l-0.171,0.036C12.17,22.502,12.057,22.518,12.06,22.413 M14.842,21.429
			c-0.052,0.177-0.221,0.36-0.389,0.478l0.074,0.083l0.171-0.036c-0.012-0.261,0.259-0.328,0.474-0.496l-0.074-0.083L14.842,21.429z
			 M14.224,19.583l0.171-0.036l0.073,0.083C14.271,19.609,14.371,19.632,14.224,19.583 M14.614,19.105l0.17-0.036l-0.012,0.102
			c-0.016,0.2-0.136,0.365-0.451,0.293l0.17-0.036C14.508,19.311,14.6,19.223,14.614,19.105 M14.71,18.986l0.171-0.036l0.073,0.083
			C14.759,19.012,14.859,19.035,14.71,18.986 M14.808,18.867l0.171-0.036l0.073,0.083C14.857,18.892,14.955,18.915,14.808,18.867
			 M20.43,16.489c-0.191-0.275-0.14-0.259-0.196-0.453l-0.343,0.073c-0.182,0.892-1.181,1.489-1.844,2.17
			c-0.691,0.709-1.133,1.682-1.791,2.455c0.301,0.233,0.295,0.1,0.38,0.314c-0.056,0.134-0.28,0.272-0.377,0.377l0.073,0.083
			l0.171-0.036c0.226-0.633,1.757-1.454,1.509-2.197c-0.214,0.026-0.256,0.035-0.416-0.011l0.17-0.036
			c0.171-0.48,1.056-0.651,1.22-1.148c-0.196-0.021-0.097,0.001-0.244-0.047c0.614-0.169,0.86-0.511,1.258-0.761l-0.074-0.083
			c-0.203,0.076-0.407,0.152-0.61,0.228l-0.073-0.083l0.085-0.018C19.44,16.961,19.935,16.672,20.43,16.489 M20.723,15.439
			c-0.035,0.076-0.248,0.18-0.281,0.258l0.771-0.163l0.012-0.101l-0.073-0.084L20.723,15.439z M19.146,13.994
			c-0.039,0.205-0.246,0.316-0.233,0.543l0.085-0.018c0.029-0.201,0.18-0.352,0.392-0.478l-0.074-0.083L19.146,13.994z
			 M3.384,10.122c-0.169,0.292-0.732,0.359-0.993,0.606c-0.355,0.335-0.659,0.789-0.892,1.177c0.05,0.056,0.099,0.111,0.148,0.167
			c0.33,0.018,0.371,0.077,0.749,0.038c0.462,0.128,1.062-0.018,1.522-0.125c-0.12-0.656,0.131-1.184-0.03-1.871
			C3.72,10.116,3.553,10.119,3.384,10.122 M5.448,0c0.521,0.649,0.875,2.67,0.943,3.259C6.334,3.501,6.276,3.745,6.218,3.987
			C6.301,4.324,6.575,4.59,6.611,4.892c0.066,0.546-0.208,1.031-0.11,1.604c0.154,0.903,0.421,1.594,0.775,2.602
			c0.257,0.73,0.1,1.505,0.237,2.223c1.062-0.125,2.687-0.587,3.558-1.051l1.116-0.237c0.88-0.467,2.289-0.699,3.154-1.162
			l0.945-0.2c1.204-0.64,3.12-0.855,4.371-1.519l1.117-0.237c1.022-0.538,2.701-0.731,3.759-1.291
			c0.515-0.109,3.342-0.681,4.066-1.059c0.892-0.469,2.134-0.743,3.391-1.015c1.033,0.601,0.947,0.132,1.923,1.272
			c0.078,0.317,0.707,0.779,0.932,1.186c0.862,1.569,0.119,1.609-1.84,1.971c-0.119,0.183-1.436,0.83-1.94,0.806
			c-0.295-0.014-0.971-0.124-1.346,0.088c-1.263,0.712-2.533,1.388-3.537,2.232c-5.05,4.247-9.415,8.63-12.397,13.695
			c-0.694,1.184-1.687,2.09-2.529,3.204c-0.273,0.363-0.11,1.047-0.329,1.454c-0.289,0.536-1.038,0.989-0.935,1.68l0.085-0.018
			c0.101-0.205,1.518-1.038,2.026-1.023c0.125,0.004,0.301,0.145,0.488,0.094c2.309-0.631,5.102-1.203,7.675-1.726
			c0.734-0.149,2.05-0.254,2.542-0.44c0.823-0.31,4.092-0.618,4.282-1.105c-0.391-0.028-0.848,0.04-1.23-0.135
			c0.27-0.048,0.549-0.103,0.607-0.227c-0.829,0.124-1.952-0.127-2.8-0.197c-1.649-0.136-3.199-0.022-4.727-0.085
			c-0.978-0.04-1.933,0.312-2.913,0.024c2.058-0.491,4.355-0.64,6.384-0.563c0.811-0.073,1.624-0.147,2.436-0.219
			c1.114,0.029,2.457-0.02,3.567,0.034c1.512,0.074,3.7-0.279,5.122,0.199c0.696,0.289,1.246,0.715,1.909,1.374l0.34-0.072
			c0.049,0.056,0.097,0.111,0.145,0.167c-0.086,0.224-0.032,0.469,0.231,0.841l-0.341,0.072c0.319,0.318,0.94,0.576,0.911,0.696
			c-0.084,0.52-1.121,0.443-1.797,0.479c-0.073-0.083-0.145-0.166-0.219-0.25l0.17-0.036c0.064-0.113,0.474-0.195,0.534-0.311
			c-1.645-0.413-3.886-0.103-5.541-0.11c-1.364-0.006-2.469,0.874-3.792,0.507c0.185-0.059,0.226-0.067,0.268-0.155
			c-0.55,0.065-1.938,0.032-2.115,0.35c0.329-0.073,0.346-0.123,0.656,0.058l-0.34,0.072c-0.213-0.054-0.613,0.036-0.827-0.022
			c0.102-0.084,0.068-0.035,0.096-0.121c-0.778,0.197-1.819,0.596-2.393,0.607c-0.969,0.018-1.861,0.065-2.542,0.439
			c-0.308,0.17-1.136,0.12-1.447,0.307c-0.834,0.505-2.461,0.256-2.684,0.965l2.297-0.487l0.074,0.083l-0.011,0.101
			c-0.211,0.149-0.786,0.27-0.884,0.483c0.684-0.178,1.369-0.355,2.053-0.533l0.073,0.082l-0.085,0.018
			c-0.114,0.383-0.708,0.126-1.116,0.336c-1.198,0.615-3.144,0.997-4.344,1.711c-0.251,0.15-0.462,0.495-0.651,0.633
			c-0.414,0.302-1.098,0.23-1.467,0.508c-0.265,0.199-0.436,0.549-0.747,0.751c-0.726,0.319-1.453,0.637-2.178,0.956
			c-1.019,0.88-0.526,1.297-1.637,2.225c-0.352,0.294-1.105,0.43-1.521,0.885c0.128-0.14-3.178,2.967-3.856,4.258
			c-0.521,0.992-0.601-0.153,0.295-1.258c1.122-1.385,1.706-4.969,2.029-4.359c0.644,1.22,0.156-0.678,0.33-1.436
			c0.097-0.421,0.322-0.602,0.599-0.859c0.611-0.569,0.832-1.975,1.298-2.787c0.89-1.548,1.652-3.231,2.523-4.784
			c0.623-1.11,1.416-2.115,2.026-3.196c0.253-0.448,0.783-0.777,0.736-1.342c-0.151,0.083-0.087,0.13-0.342,0.072l0.17-0.036
			c-0.018-0.228,0.118-0.423,0.315-0.56l0.074,0.083c-0.083,0.127-0.148,0.253-0.132,0.423l0.086-0.018
			c0.087-0.422,0.586-0.499,0.85-0.871c0.253-0.358,0.437-0.943,0.653-1.325c0.211-0.144,0.421-0.287,0.633-0.431
			c0.34-0.63,0.753-1.363,1.228-1.941c0.211-0.143,0.423-0.287,0.635-0.431c0.47-0.823,1.163-1.552,1.782-2.353
			c0.316-0.41,0.508-0.899,1.063-1.214l-0.073-0.084c-0.568,0.209-0.623,0.65-0.868,0.976c-0.372,0.495-0.872,0.803-1.32,1.268
			c-0.298,0.309-0.398,0.864-0.719,1.14c-0.217,0.187-0.505,0.038-0.684,0.145c-0.155,0.094-0.197,0.439-0.317,0.562
			c-1.035,1.07-1.937,2.131-2.639,3.326c-0.463,0.791-1.196,1.341-1.661,2.131C9.048,26.64,7.712,28.781,6.515,31
			c-0.769,1.428-2.679,4.421-3.507,5.864c-0.337,0.588-0.27,1.44-1.107,1.816l-0.075-0.083l0.085-0.018
			c-0.101-0.927,1.185-1.856,1.608-2.614c0.948-1.694,2.888-5.005,3.855-6.729c2.757-4.893,5.838-9.887,9.898-14.253
			c1.601-1.718,3.505-3.256,5.041-5.021L22.24,9.88l-0.944,0.2c-0.149,0.244-1.012,0.313-1.472,0.41
			c-0.639,0.136-1.105,0.313-1.483,0.512l-1.373,0.291c-0.955,0.499-2.133,0.946-3.016,1.43l-1.887,0.4
			c-0.301,0.159-0.849,0.382-1.151,0.541c-0.688,0.36-1.913,0.412-2.425,0.711c0.66,2.571,0.087,4.644,0.191,6.976
			c0.021,0.484,0.344,2.642,0.092,2.846c-0.518,0.823-4.202-2.411-5.039-3.379c0.095-1.141,0.032-2.421-0.085-3.638
			c-0.105-1.095,0.335-2.033,0.118-3.187c-1.024-0.122-1.637-0.36-2.593-0.736C0.628,12.706,0.408,12.383,0,11.827
			c0.411-0.793,0.618-1.279,1.565-1.913C2.388,9.575,3.21,9.236,4.033,8.897C3.995,8.51,3.958,8.123,3.92,7.735
			c0.667-1.848,0.203-4.172,0.897-6.02C5.025,1.163,4.699,0.336,5.448,0"/>
	</g>
	<g>
		<path fill="#FFFFFF" d="M35.971,25.901h-0.848c0,1.79-0.723,3.402-1.895,4.576c-1.174,1.174-2.787,1.896-4.577,1.896
			c-1.79,0-3.403-0.723-4.577-1.896c-1.173-1.174-1.895-2.786-1.895-4.576c0-1.79,0.723-3.403,1.895-4.577
			c1.174-1.173,2.787-1.895,4.577-1.895c1.79,0,3.403,0.723,4.577,1.895c1.173,1.174,1.895,2.787,1.895,4.577H35.971h0.848
			c0-4.511-3.657-8.168-8.168-8.168c-4.512,0-8.168,3.657-8.168,8.168c0,4.511,3.656,8.168,8.168,8.168
			c4.511,0,8.168-3.657,8.168-8.168H35.971z"/>
		<path fill="#FFFFFF" d="M53.129,25.901h-0.848c0,1.79-0.723,3.402-1.895,4.576c-1.174,1.174-2.787,1.896-4.577,1.896
			c-1.79,0-3.402-0.723-4.577-1.896c-1.173-1.174-1.895-2.786-1.895-4.576c0-1.79,0.723-3.402,1.895-4.577
			c1.175-1.173,2.787-1.895,4.577-1.895c1.79,0,3.403,0.723,4.577,1.895c1.173,1.174,1.895,2.787,1.895,4.577H53.129h0.848
			c0-4.511-3.656-8.168-8.168-8.168c-4.511,0-8.168,3.656-8.169,8.168c0.001,4.512,3.658,8.168,8.169,8.168
			c4.512,0,8.168-3.657,8.168-8.168H53.129z"/>
		<path fill="#FFFFFF" d="M68.632,33.255V18.614c0-0.369-0.241-0.698-0.593-0.808c-0.352-0.112-0.737,0.02-0.949,0.322l-4.863,6.939
			l-4.864-6.939c-0.211-0.302-0.597-0.433-0.949-0.322c-0.352,0.111-0.593,0.44-0.593,0.808v14.641c0,0.469,0.38,0.848,0.848,0.848
			c0.469,0,0.848-0.379,0.848-0.848V21.302l4.016,5.729c0.159,0.228,0.416,0.361,0.694,0.361c0.277,0,0.535-0.134,0.694-0.361
			l4.015-5.729v11.953c0,0.469,0.379,0.848,0.848,0.848C68.253,34.103,68.632,33.724,68.632,33.255"/>
		<path fill="#FFFFFF" d="M100.716,18.614v14.641c0,0.469,0.379,0.848,0.848,0.848s0.848-0.379,0.848-0.848V18.614
			c0-0.469-0.379-0.848-0.848-0.848S100.716,18.145,100.716,18.614"/>
		<path fill="#FFFFFF" d="M95.067,19.462h12.994c0.469,0,0.848-0.379,0.848-0.848c0-0.469-0.379-0.848-0.848-0.848H95.067
			c-0.469,0-0.848,0.379-0.848,0.848C94.219,19.083,94.598,19.462,95.067,19.462"/>
		<path fill="#FFFFFF" d="M85.575,33.575l5.18-12.713l5.18,12.713c0.176,0.433,0.671,0.642,1.105,0.466
			c0.434-0.176,0.643-0.671,0.466-1.106L91.54,18.294c-0.131-0.32-0.44-0.527-0.785-0.527s-0.655,0.208-0.785,0.527l-5.965,14.641
			c-0.176,0.434,0.031,0.929,0.466,1.106C84.904,34.217,85.398,34.008,85.575,33.575"/>
		<path fill="#FFFFFF" d="M107.135,33.575l5.182-12.713l5.18,12.713c0.176,0.433,0.67,0.642,1.105,0.466
			c0.434-0.176,0.642-0.671,0.465-1.106l-5.964-14.641c-0.131-0.32-0.44-0.527-0.785-0.527c-0.347,0-0.655,0.208-0.785,0.527
			l-5.967,14.641c-0.176,0.434,0.031,0.929,0.466,1.106C106.464,34.217,106.959,34.008,107.135,33.575"/>
		<path fill="#FFFFFF" d="M72.156,33.255h0.848V19.454l2.769-0.026h-0.008c1.79,0.001,3.402,0.724,4.577,1.896
			c1.173,1.174,1.896,2.786,1.896,4.576c0,1.79-0.724,3.403-1.896,4.577c-1.175,1.173-2.787,1.895-4.577,1.895h-0.008l-3.609,0.034
			L72.156,33.255h0.848H72.156l0.008,0.848l3.609-0.034h-0.008c4.511,0,8.168-3.656,8.169-8.168
			c-0.001-4.512-3.658-8.167-8.169-8.168h-0.008l-3.609,0.035c-0.465,0.004-0.84,0.382-0.84,0.848v14.641
			c0,0.227,0.091,0.443,0.251,0.603c0.162,0.16,0.379,0.248,0.606,0.245L72.156,33.255z"/>
		<path fill="#FFFFFF" d="M87.615,28.673h3.991c0.469,0,0.848-0.38,0.848-0.848c0-0.469-0.379-0.848-0.848-0.848h-3.991
			c-0.469,0-0.848,0.379-0.848,0.848C86.767,28.293,87.146,28.673,87.615,28.673"/>
		<path fill="#FFFFFF" d="M109.218,28.673h3.991c0.469,0,0.849-0.38,0.849-0.848c0-0.469-0.38-0.848-0.849-0.848h-3.991
			c-0.469,0-0.848,0.379-0.848,0.848C108.37,28.293,108.749,28.673,109.218,28.673"/>
	</g>
	<g>
		<path fill="#68AD45" d="M118.172,16.472c0.824,0,1.48,0.638,1.48,1.453c0,0.815-0.656,1.462-1.489,1.462
			c-0.833,0-1.498-0.647-1.498-1.462c0-0.815,0.665-1.453,1.498-1.453H118.172z M118.154,16.764c-0.629,0-1.116,0.523-1.116,1.161
			c0,0.647,0.487,1.161,1.134,1.161c0.629,0.009,1.108-0.514,1.108-1.152c0-0.647-0.479-1.17-1.117-1.17H118.154z M117.932,18.678
			h-0.337v-1.453c0.133-0.018,0.319-0.044,0.558-0.044c0.275,0,0.399,0.044,0.496,0.115c0.089,0.062,0.151,0.168,0.151,0.31
			c0,0.177-0.133,0.292-0.301,0.346v0.018c0.142,0.044,0.213,0.159,0.257,0.354c0.044,0.221,0.08,0.301,0.106,0.354h-0.354
			c-0.044-0.053-0.071-0.177-0.115-0.354c-0.027-0.151-0.115-0.222-0.301-0.222h-0.16V18.678z M117.941,17.863h0.159
			c0.186,0,0.337-0.062,0.337-0.213c0-0.133-0.098-0.222-0.31-0.222c-0.089,0-0.151,0.009-0.186,0.018V17.863z"/>
	</g>
	<path fill="#68AD45" d="M21.265,28.467c-0.47,0.096-0.948,0.193-1.429,0.292c0.08,0.451,0.283,0.903,0.611,1.354
		c0.581-0.169,1.26-0.198,1.982-0.212c0.433-0.009,1.13-0.237,1.78-0.433c-0.148-0.46-0.442-0.919-0.609-1.378
		C23.013,28.238,21.913,28.335,21.265,28.467z"/>
</g>
</svg>
